<svg xmlns="http://www.w3.org/2000/svg" version="1.0" viewBox="0 0 512 512"><path fill="#fff" d="M0 56v55h30V30h81V15l-1-15H1v56zM402 1l-1 15v14h81v81h30V0h-55l-55 1zM241 59v28l-8 1A170 170 0 0 0 88 230l-1 11H30v30h57l1 11a171 171 0 0 0 143 141l9 2 1 28v29h29v-57l10-2 19-3c64-17 113-71 123-136l2-13h57v-30h-57l-1-11A171 171 0 0 0 278 88l-7-1-1-28V30h-29v29zm0 85v25l15 1h14v-52h3a141 141 0 0 1 121 122l-26 1h-27l-1-3c-6-30-28-54-57-64-15-5-13-9-13 32v35h71v30h-71v35c0 41-2 37 13 32 29-10 51-34 57-64l1-3h27l26 1a142 142 0 0 1-121 122h-3v-51h-29v51h-3l-25-5a140 140 0 0 1-96-117l26-1h27l1 3c6 31 29 56 59 65 12 4 11 7 11-33v-35h-71v-30h71v-35c0-40 1-36-11-33-30 9-53 34-59 65l-1 3h-26l-27-1 2-11a140 140 0 0 1 118-111h4v26zM0 457v55h111v-30H30v-81H0v56zM482 442v40h-81v29l56 1h55V401h-30v41z"/></svg>