<svg xmlns="http://www.w3.org/2000/svg" width="32" height="32" viewBox="0 0 1e3 1e3">
<g fill="white">
<path d="M879.8,120.3c4.1,16.3,8.2,36.8,8.2,53.1c0,12.3,0,24.5-4.1,36.8l24.5,12.3v632.9L704.2,753.2V618.4l-40.8,65.3v53.1l-36.8,16.3L377.5,879.8V201.9l61.3-24.5c0-4.1,0-4.1,0-8.2c0-28.6,4.1-57.2,16.3-85.8l-118.4,49L10,10v816.7L336.7,990l326.7-163.3L990,990V173.3L879.8,120.3z M91.7,777.7V128.4l216.4,81.7l28.6,8.2v681.9L91.7,777.7z"/><path d="m826.7 173.3c0-89.8-73.5-163.3-163.4-163.3-89.8 0-163.3 73.5-163.3 163.3 0 138.8 163.3 396.1 163.3 396.1s163.4-257.2 163.4-396.1zm-224.6 0c0-32.7 28.6-61.3 61.3-61.3s61.3 28.6 61.3 61.3-28.6 61.3-61.3 61.3-61.3-28.6-61.3-61.3z"/>
</g>
</svg>
