<svg xmlns="http://www.w3.org/2000/svg" width="32" height="32" viewBox="0 0 9800 9800">
<path fill="white" d="M4287.3 9761.7c-73.5-16.3-210.3-67.4-306.3-114.4-563.7-279.8-851.6-970.1-645.3-1550 30.6-83.7 59.2-167.5 63.3-183.8 6.1-20.4-318.6-310.4-970-867.9-539-459.5-1000.7-853.6-1029.3-876.1-47-34.7-55-34.7-179.7-4.1-345 85.8-698.4-16.3-941.5-271.6-371.7-390.1-371.7-963.9 2-1354 200.1-210.4 490.1-320.6 770-292 79.5 8.2 165.3 16.3 192 16.3 44.8 4.1 136.7-140.9 945.5-1488.8l896.4-1490.8-67.4-142.9c-61.3-128.7-67.4-157.3-67.4-337 0-183.8 4.1-202.2 75.6-349.2 92-185.8 210.3-300.2 400.3-390C3550.1 6.2 3580.7 0 3756.3 0c175.6 0 206.3 6.1 330.8 65.4 228.7 108.2 416.6 332.9 457.5 551.4l12.3 65.4 1648 547.2 1646 547.3 143-71.5c132.7-67.4 155.2-71.5 337-71.5 175.6 0 206.3 6.1 330.8 65.4 190 89.8 308.4 204.2 400.3 390 71.5 147.1 75.6 165.4 75.6 351.3 0 185.8-4 204.2-75.6 349.2l-75.6 151.1 153.2 2011.6 153.2 2011.6 65.4 51.1c124.6 93.9 269.6 255.3 324.7 359.4 202.2 375.8 139 818.9-161.3 1133.4-353.3 371.7-923 404.4-1317.2 77.6-53-42.9-110.3-79.6-130.7-79.6-36.8 0-2103.5 300.2-2197.4 318.6-32.7 6.1-57.2 24.5-57.2 38.8 0 14.3-42.9 110.3-93.9 212.4-155.2 310.4-410.5 533-747.5 649.4-188 65.3-492.3 81.6-690.4 36.7zM4808 9435c522.8-136.8 847.5-671.9 714.8-1184.5-126.6-484-594.3-802.6-1080.3-731.1a990.5 990.5 0 0 0-818.9 731.1C3441.8 8951 4107.6 9616.7 4808 9435zm2101.5-1094.7c539.1-79.6 984.3-147 988.4-149.1 2.1-4.1-8.2-59.2-26.6-126.6-79.6-304.3 4.1-631 222.6-880.2l79.6-91.9L7171 6089.8 6170.2 5089.1l-130.7 59.2c-112.3 51.1-151 59.2-322.7 59.2-169.5 0-210.4-8.2-314.5-57.2-159.3-73.5-279.8-175.6-361.5-302.3-63.3-96-71.5-102.1-140.9-91.9-38.8 6.1-700.5 67.4-1470.4 134.8-769.9 69.6-1417.3 128.8-1439.7 132.9-38.8 8.2-42.9 20.4-34.7 138.9 16.3 238.9-71.5 496.3-230.8 682.1-38.8 47-71.5 89.9-71.5 96 0 14.3 1899.3 1646 1932 1658.3 12.2 6.1 61.2-28.6 112.2-73.5 214.4-200.1 504.4-322.7 804.6-341.1 674-38.8 1272.3 455.4 1364.2 1129.4 12.3 93.9 32.7 171.5 43 171.5 10.1 0 461.5-65.4 1000.7-145.1zm2187.2 81.7c128.7-61.3 251.2-183.8 316.5-314.5 71.5-147 71.5-404.4 0-551.4-63.3-130.7-185.8-253.2-316.5-316.5-147-71.5-404.4-71.5-551.4 0-531 259.4-486 1010.9 71.5 1213.1 128.6 46.9 347.1 32.6 480-30.7zm-498.3-1541.9c75.6-20.4 175.6-28.6 247.1-24.5l118.4 8.2-12.2-102.1c-10.2-98-273.7-3531-273.7-3567.8 0-8.2-34.7-2-75.6 18.4-53 22.5-136.8 32.7-271.6 34.7-177.7 0-206.3-6.1-334.9-67.4l-143-67.4-718.8 433-718.9 430.9 53.1 114.4c47 100.1 55.1 142.9 55.1 310.4 0 171.5-8.2 210.3-59.2 322.7l-59.2 130.7 1029.3 1029.3c565.7 565.7 1031.3 1029.3 1033.4 1029.3 2-.1 61.3-14.4 130.7-32.8zM1256.6 5808c126.6-61.3 251.2-183.8 314.5-314.5 71.5-149.1 71.5-406.4 0-551.4-63.3-130.7-185.8-253.2-316.5-316.5-147-71.5-404.4-71.5-551.4 0-531 259.4-486 1008.8 71.5 1213.1 126.6 44.9 347.1 30.6 482-30.7zm4625.6-947.6c179.7-63.3 324.7-267.5 324.7-459.5 0-257.3-232.8-490.1-490-490.1-257.4 0-490.2 232.8-490.2 490.1 0 122.5 57.2 251.2 149.1 343.1 141 138.9 322.6 179.7 506.4 116.4zm-2495.5-292 1501-136.8 24.5-147.1c47-283.9 212.4-500.3 473.8-624.9 124.6-59.2 155.2-65.4 330.8-65.4 177.7 0 206.3 6.1 335 67.4l142.8 67.4 718.8-433 719-430.9-53.2-114.4c-47-100.1-55-143-55-310.4 0-155.2 10.1-212.4 44.8-292 32.7-71.5 38.8-100.1 20.4-106.2-71.3-28.6-3028.5-1010.8-3038.7-1010.8-6 0-32.7 51.1-57.2 114.4-65.4 157.3-228.7 318.6-404.4 402.3-126.6 59.2-157.2 65.4-332.9 65.4-167.5 0-210.3-8.2-310.4-55.1l-114.4-53.1-878 1462.2-878.2 1464.1 110.3 118.4c61.3 65.4 110.3 126.6 110.3 138.9 0 26.6-67.4 30.7 1591-120.4zm5109.6-1668.5c179.7-63.3 324.7-267.5 324.7-459.5 0-257.3-232.8-490.1-490-490.1-120.6 0-247.2 55.1-341.2 147.1-371.7 363.4 16.3 974 506.5 802.5zM3921.7 1266.1c179.7-63.3 324.7-267.5 324.7-459.5 0-257.3-232.8-490.1-490-490.1-257.4 0-490.2 232.8-490.2 490.1 0 122.5 57.2 251.2 149.1 343.1 141 138.9 322.6 179.7 506.4 116.4z"/>
</svg>